<svg width="60" height="80" viewBox="0 0 60 80" fill="none" xmlns="http://www.w3.org/2000/svg">
<path d="M50.5709 78.4376V71.3285L57.8755 53.5114C59.379 49.8442 58.7263 45.7591 56.1324 42.6L44.9856 29.0254L38.1457 37.111L28.8398 76.4612V78.4376C28.8398 79.3005 29.6321 80.0001 30.6095 80.0001H48.8011C49.7786 80.0001 50.5709 79.3005 50.5709 78.4376Z" fill="#FED2A4"/>
<path d="M56.1332 42.6L44.9862 29.0254L43.2689 31.0555L50.8242 40.2563C53.4182 43.4152 54.0708 47.5003 52.5673 51.1677L45.9103 67.4053C45.4819 68.4503 45.2628 69.5531 45.2628 70.6643C45.2628 74.5259 41.7175 77.6562 37.344 77.6562H28.8408V78.4374C28.8408 79.3004 29.6331 79.9999 30.6105 79.9999H48.8021C49.7794 79.9999 50.5717 79.3004 50.5717 78.4374V71.3284L57.8764 53.5112C59.3798 49.8441 58.7271 45.7589 56.1332 42.6Z" fill="#FFBD86"/>
<path d="M39.603 49.1903H6.84601C3.79886 49.1903 1.32861 47.0092 1.32861 44.3188V6.04342C1.32861 3.35296 3.79886 1.17188 6.84601 1.17188H41.438C44.4851 1.17188 46.9554 3.35296 46.9554 6.04342V42.6986C46.9554 46.2839 43.6637 49.1903 39.603 49.1903Z" fill="#FD4755"/>
<path d="M41.4374 1.17188H40.8458C41.3535 1.9089 41.6459 2.77421 41.6459 3.69968V11.9545C41.6459 31.2249 23.9531 46.8466 2.12793 46.8466C3.09593 48.2517 4.84646 49.1903 6.84527 49.1903H39.6025C43.6631 49.1903 46.9548 46.2839 46.9548 42.6986V6.04342C46.9548 3.35296 44.4846 1.17188 41.4374 1.17188Z" fill="#FB2B3A"/>
<path d="M33.9074 30.4995L28.9883 26.1562C28.3785 25.6178 28.3785 24.7448 28.9883 24.2064L33.9074 19.8631C34.9409 18.9506 34.9409 17.4712 33.9074 16.5589C32.8739 15.6464 31.1984 15.6464 30.1649 16.5589L25.2459 20.9022C24.636 21.4406 23.6473 21.4406 23.0375 20.9022L18.1184 16.5589C17.085 15.6464 15.4095 15.6464 14.3762 16.5589C13.3427 17.4714 13.3427 18.9508 14.3762 19.8631L19.2953 24.2064C19.9051 24.7448 19.9051 25.6178 19.2953 26.1562L14.3762 30.4995C13.3427 31.412 13.3427 32.8913 14.3762 33.8038C15.4097 34.7163 17.0852 34.7163 18.1184 33.8038L23.0375 29.4606C23.6473 28.9221 24.636 28.9221 25.2459 29.4606L30.1649 33.8038C31.1984 34.7163 32.8739 34.7163 33.9072 33.8038C34.9409 32.8913 34.9409 31.412 33.9074 30.4995Z" fill="white"/>
<path d="M33.6334 56.2779H16.7216C14.5049 56.2779 12.708 54.6913 12.708 52.7342C12.708 50.777 14.5049 49.1904 16.7216 49.1904H33.6334V56.2779Z" fill="#FFBD86"/>
<path d="M38.0523 63.3648H21.1405C18.9238 63.3648 17.127 61.7783 17.127 59.8211C17.127 57.8639 18.9238 56.2773 21.1405 56.2773H38.0523V63.3648Z" fill="#FFBD86"/>
<path d="M28.8403 77.656V74.0886C28.8403 72.559 28.3931 71.0554 27.5419 69.7233L27.5 69.6576C23.6202 63.585 24.5197 56.015 29.7429 50.7822L31.5435 48.9783C32.8426 47.6768 33.5016 45.9736 33.3752 44.2438L32.3249 29.8692C32.1492 27.4643 33.503 25.1725 35.8391 23.9197C38.0547 22.7314 40.9415 23.7884 41.5492 26.0103L46.9181 45.641C47.3434 47.1957 48.4476 48.5388 49.9901 49.3772L51.1368 50.0007L28.8403 77.656Z" fill="#FED2A4"/>
<path d="M33.1845 28.6072C35.4001 27.4189 38.2869 28.476 38.8946 30.6978L44.2635 50.3286C44.2681 50.3457 44.2729 50.3629 44.2777 50.3801C44.9597 52.8268 48.6427 53.3564 50.2085 51.2496L50.3978 50.9948C50.8024 50.4504 50.6178 49.7186 49.9899 49.3773C48.4475 48.5389 47.3432 47.1958 46.918 45.6411L41.5491 26.0102C40.9414 23.7883 38.0545 22.7315 35.8389 23.9196C33.7373 25.0466 32.4349 27.0152 32.3218 29.1499C32.592 28.9532 32.8794 28.771 33.1845 28.6072Z" fill="#FFBD86"/>
<path d="M50.4411 50.9987C51.0654 51.3381 51.8828 51.1662 52.2672 50.6153C52.6515 50.0642 52.4569 49.3423 51.8329 49.003L50.6862 48.3795C49.4338 47.6988 48.5537 46.6284 48.2083 45.3661C48.2083 45.3661 48.2832 43.3535 48.2832 42.6985V6.04373C48.2832 2.71124 45.2125 0 41.4382 0H6.84516C3.07086 0 0.000176867 2.71124 0.000176867 6.04373V11.1118C0.000176867 11.759 0.594247 12.2837 1.32741 12.2837C2.06057 12.2837 2.65464 11.759 2.65464 11.1118V6.04373C2.65464 4.00358 4.53454 2.34374 6.84516 2.34374H41.4382C43.7488 2.34374 45.6287 4.00358 45.6287 6.04373V35.9338L42.8394 25.7352C42.4497 24.3098 41.3456 23.169 39.8101 22.6054C38.2723 22.041 36.5738 22.1546 35.1503 22.9181C33.4597 23.8246 32.2097 25.1823 31.5393 26.7509L29.9272 25.3276C29.8357 25.2468 29.8357 25.1154 29.9273 25.0346L34.845 20.691C36.3938 19.3234 36.3938 17.0981 34.845 15.7306C33.3144 14.3792 30.7479 14.3745 29.2271 15.7304L24.3073 20.0728C24.2149 20.1546 24.0688 20.1549 23.9757 20.0726L19.0562 15.7306C17.5073 14.3631 14.9875 14.3628 13.4382 15.7306C11.9074 17.082 11.8957 19.3415 13.438 20.6909L18.356 25.0346C18.4475 25.1154 18.4475 25.2468 18.3558 25.3276L13.4382 29.6712C11.8894 31.0387 11.8894 33.264 13.4382 34.6315C14.9595 35.9747 17.5352 35.9889 19.0561 34.6316L23.9757 30.2893C24.0684 30.2074 24.2144 30.2069 24.3075 30.2893L29.2269 34.6313C29.8348 35.168 30.6002 35.5019 31.4149 35.6146L32.0509 44.3189C32.1495 45.6678 31.6791 46.972 30.7235 48.0184H6.84499C4.53436 48.0184 2.65447 46.3586 2.65447 44.3183V15.7993C2.65447 15.1521 2.0604 14.6275 1.32723 14.6275C0.59407 14.6275 0 15.1521 0 15.7993V44.3186C0 47.6511 3.07069 50.3625 6.84499 50.3625H12.104C11.6328 51.0745 11.3806 51.8869 11.3806 52.7344C11.3806 55.2765 13.6709 57.3539 16.5251 57.4456C16.0524 58.159 15.7994 58.9731 15.7994 59.822C15.7994 62.4223 18.1951 64.5376 21.1402 64.5376H24.0615C24.4361 66.5028 25.1927 68.4314 26.3445 70.2345L26.3859 70.2995C27.1233 71.4535 27.513 72.7637 27.513 74.0888V78.8279C27.513 79.4752 28.1071 79.9997 28.8403 79.9997C29.5734 79.9997 30.1675 79.4752 30.1675 78.8279V74.0885C30.1675 72.3607 29.6592 70.6523 28.6973 69.1467L28.6559 69.082C25.0589 63.4515 25.8957 56.4089 30.7386 51.5572L32.539 49.7531C34.0825 48.2072 34.8498 46.2239 34.6995 44.1685L33.6493 29.7938C33.5049 27.818 34.6079 25.951 36.5281 24.9213C37.219 24.5505 38.0436 24.4954 38.791 24.7696C39.5351 25.0429 40.0702 25.5954 40.2591 26.2855L45.628 45.9163C46.1391 47.7841 47.441 49.3677 49.2942 50.3753L50.4411 50.9987ZM31.1038 32.9743L26.1842 28.6321C25.058 27.6377 23.2253 27.6379 22.0988 28.6321L17.179 32.9744C16.6738 33.4249 15.8215 33.4215 15.3152 32.9744C14.8013 32.5207 14.8013 31.7824 15.3154 31.3285L20.2331 26.9848C21.3591 25.9904 21.3591 24.3723 20.2332 23.3777L15.3152 19.0338C14.8052 18.5881 14.8079 17.836 15.3152 17.3879C15.8288 16.9343 16.6653 16.9342 17.1792 17.3881L22.0986 21.7301C22.6447 22.2121 23.3703 22.4776 24.1415 22.4776C24.9127 22.4776 25.6383 22.2121 26.1842 21.7302L31.104 17.3879C31.6082 16.9374 32.4602 16.9398 32.9678 17.3879C33.4817 17.8417 33.4817 18.5799 32.9676 19.034L28.0499 23.3776C26.9239 24.3721 26.9239 25.9902 28.0499 26.9848L30.9847 29.576C31.0426 30.0693 31.2133 32.6008 31.2289 33.0715C31.1856 33.0416 31.1436 33.0093 31.1038 32.9743ZM23.7982 62.1936H21.1404C19.6592 62.1936 18.454 61.1295 18.454 59.8217C18.454 58.5276 19.6793 57.444 21.1404 57.4497H24.3553C23.9268 59.0012 23.7393 60.5975 23.7982 62.1936ZM25.2019 55.1061H16.7215C15.2402 55.1061 14.0351 54.042 14.0351 52.7342C14.0351 52.0998 14.3145 51.5045 14.8233 51.0567C15.3301 50.6091 16.0043 50.3625 16.7215 50.3625H28.4069C27.0377 51.8094 25.9664 53.4126 25.2019 55.1061ZM57.2078 41.9119L52.5218 36.2052C52.0913 35.6811 51.2615 35.5644 50.6681 35.9444C50.0746 36.3243 49.9424 37.0571 50.3726 37.581L55.0586 43.2877C57.3958 46.1339 57.9824 49.8066 56.6283 53.1119L49.3232 70.929C49.1609 71.2865 49.2439 78.4287 49.2439 78.8279C49.2439 79.4752 49.838 79.9997 50.5711 79.9997C51.3043 79.9997 51.8984 79.4752 51.8984 78.8279V71.5334L59.1244 53.9094C60.7783 49.8728 60.0617 45.3875 57.2078 41.9119Z" fill="black"/>
</svg>
