<svg width="80" height="80" viewBox="0 0 80 80" fill="none" xmlns="http://www.w3.org/2000/svg">
<path d="M43.7798 68.9942C43.594 68.9942 43.4428 68.8477 43.4428 68.6677V23.2513C43.4428 23.0711 43.594 22.9245 43.7798 22.9245H57.6854V9.75016C57.6854 9.30563 57.3135 8.94531 56.8547 8.94531H43.8666V15.402C43.8666 15.7597 43.5663 16.0506 43.1973 16.0506H14.4883C14.1191 16.0506 13.8188 15.7597 13.8188 15.402V8.94531H0.830755C0.371912 8.94531 0 9.30563 0 9.75016V79.1953C0 79.6398 0.371912 80.0002 0.830755 80.0002H56.8547C57.3135 80.0002 57.6854 79.6398 57.6854 79.1953V68.9942H43.7798Z" fill="#CA6E59"/>
<path d="M8.43205 79.1953V75.4894H5.15452C4.87921 75.4894 4.656 75.2731 4.656 75.0066V13.9389C4.656 13.6722 4.87921 13.4561 5.15452 13.4561H8.43205V9.75016C8.43205 9.30563 8.80397 8.94531 9.26281 8.94531H0.830755C0.371912 8.94531 0 9.30563 0 9.75016V79.1953C0 79.6398 0.371912 80.0002 0.830755 80.0002H9.26265C8.80397 80.0002 8.43205 79.6398 8.43205 79.1953Z" fill="#BB5D4C"/>
<path d="M38.3542 7.91203C37.6531 3.43281 33.6618 0 28.8427 0C24.0235 0 20.0321 3.43281 19.3311 7.91203H38.3542Z" fill="#E8B800"/>
<path d="M24.8564 7.91203C25.4181 4.32578 28.0881 1.41125 31.6045 0.391719C30.7295 0.138125 29.8028 0 28.8427 0C24.0235 0 20.0321 3.43281 19.3311 7.91203H24.8564Z" fill="#D7AA02"/>
<path d="M43.7801 68.9942C43.5943 68.9942 43.443 68.8476 43.443 68.6676V23.2512C43.443 23.0711 43.5943 22.9245 43.7801 22.9245H53.0297V13.9389C53.0297 13.6721 52.8065 13.4561 52.5312 13.4561H43.8669V15.402C43.8669 15.7596 43.5666 16.0506 43.1976 16.0506H14.4885C14.1194 16.0506 13.8191 15.7596 13.8191 15.402V13.4561H5.15477C4.87946 13.4561 4.65625 13.6723 4.65625 13.9389V75.0065C4.65625 75.2732 4.87946 75.4893 5.15477 75.4893H52.5313C52.8066 75.4893 53.0298 75.2731 53.0298 75.0065V68.9942H43.7801Z" fill="#FFF3DE"/>
<path d="M9.67965 75.0067V13.939C9.67965 13.6723 9.90286 13.4561 10.1782 13.4561H5.15477C4.87946 13.4561 4.65625 13.6723 4.65625 13.939V75.0065C4.65625 75.2732 4.87946 75.4895 5.15477 75.4895H10.1782C9.90286 75.4895 9.67965 75.2734 9.67965 75.0067Z" fill="#FFE5C2"/>
<path d="M43.1975 7.75586H14.4885C14.0296 7.75586 13.6577 8.11617 13.6577 8.5607V15.4018C13.6577 15.8463 14.0296 16.2066 14.4885 16.2066H43.1973C43.6562 16.2066 44.0281 15.8463 44.0281 15.4018V8.5607C44.0282 8.11617 43.6563 7.75586 43.1975 7.75586Z" fill="#FAC600"/>
<path d="M19.2664 15.4018V8.5607C19.2664 8.11617 19.6383 7.75586 20.0972 7.75586H14.4885C14.0296 7.75586 13.6577 8.11617 13.6577 8.5607V15.4018C13.6577 15.8463 14.0296 16.2066 14.4885 16.2066H20.0972C19.6383 16.2066 19.2664 15.8463 19.2664 15.4018Z" fill="#E8B800"/>
<path d="M43.443 24.2754H24.1334C23.4652 24.2754 22.9238 24.8001 22.9238 25.4473C22.9238 26.0945 23.4652 26.6191 24.1334 26.6191H43.443V24.2754Z" fill="#4FC123"/>
<path d="M43.443 28.3354H24.1334C23.4652 28.3354 22.9238 28.8601 22.9238 29.5073C22.9238 30.1545 23.4652 30.6792 24.1334 30.6792H43.443V28.3354Z" fill="#4FC123"/>
<path d="M43.443 36.8306H24.1334C23.4652 36.8306 22.9238 37.3553 22.9238 38.0024C22.9238 38.6496 23.4652 39.1743 24.1334 39.1743H43.443V36.8306Z" fill="#E8B800"/>
<path d="M43.443 40.8901H24.1334C23.4652 40.8901 22.9238 41.4148 22.9238 42.062C22.9238 42.7092 23.4652 43.2339 24.1334 43.2339H43.443V40.8901Z" fill="#E8B800"/>
<path d="M18.0239 42.7389H12.3472C12.0718 42.7389 11.8486 42.5227 11.8486 42.2559V36.7564C11.8486 36.4897 12.0718 36.2734 12.3472 36.2734H18.0237C18.299 36.2734 18.5222 36.4897 18.5222 36.7564V42.2559C18.5222 42.5227 18.299 42.7389 18.0239 42.7389Z" fill="#FAC600"/>
<path d="M43.443 49.3853H24.1334C23.4652 49.3853 22.9238 49.9099 22.9238 50.5571C22.9238 51.2043 23.4652 51.729 24.1334 51.729H43.443V49.3853Z" fill="#E8B800"/>
<path d="M43.443 53.4453H24.1334C23.4652 53.4453 22.9238 53.97 22.9238 54.6172C22.9238 55.2644 23.4652 55.7891 24.1334 55.7891H43.443V53.4453Z" fill="#E8B800"/>
<path d="M18.0239 55.2936H12.3472C12.0718 55.2936 11.8486 55.0773 11.8486 54.8106V49.3111C11.8486 49.0444 12.0718 48.8281 12.3472 48.8281H18.0237C18.299 48.8281 18.5222 49.0444 18.5222 49.3111V54.8106C18.5222 55.0773 18.299 55.2936 18.0239 55.2936Z" fill="#FAC600"/>
<path d="M43.443 61.9404H24.1334C23.4652 61.9404 22.9238 62.4651 22.9238 63.1123C22.9238 63.7595 23.4652 64.2842 24.1334 64.2842H43.443V61.9404Z" fill="#E8B800"/>
<path d="M43.443 66H24.1334C23.4652 66 22.9238 66.5247 22.9238 67.1719C22.9238 67.8191 23.4652 68.3438 24.1334 68.3438H43.443V66Z" fill="#E8B800"/>
<path d="M18.0239 67.8488H12.3472C12.0718 67.8488 11.8486 67.6325 11.8486 67.3658V61.8663C11.8486 61.5996 12.0718 61.3833 12.3472 61.3833H18.0237C18.299 61.3833 18.5222 61.5996 18.5222 61.8663V67.3658C18.5222 67.6325 18.299 67.8488 18.0239 67.8488Z" fill="#FAC600"/>
<path d="M18.0234 43.9106H12.3468C11.4049 43.9106 10.6387 43.1683 10.6387 42.2558V36.7563C10.6387 35.8439 11.4049 35.1016 12.3468 35.1016H18.0234C18.9652 35.1016 19.7315 35.8439 19.7315 36.7563V42.2558C19.7315 43.1683 18.9652 43.9106 18.0234 43.9106ZM13.0579 41.5669H17.3123V37.4453H13.0579V41.5669Z" fill="#D7AA02"/>
<path d="M18.0234 56.4653H12.3468C11.4049 56.4653 10.6387 55.723 10.6387 54.8106V49.3111C10.6387 48.3986 11.4049 47.6562 12.3468 47.6562H18.0234C18.9652 47.6562 19.7315 48.3986 19.7315 49.3111V54.8106C19.7315 55.723 18.9652 56.4653 18.0234 56.4653ZM13.0579 54.1216H17.3123V49.9998H13.0579V54.1216Z" fill="#D7AA02"/>
<path d="M18.0234 69.0205H12.3468C11.4049 69.0205 10.6387 68.2781 10.6387 67.3658V61.8661C10.6387 60.9538 11.4049 60.2114 12.3468 60.2114H18.0234C18.9652 60.2114 19.7315 60.9538 19.7315 61.8661V67.3658C19.7315 68.2781 18.9652 69.0205 18.0234 69.0205ZM13.0579 66.6767H17.3123V62.5552H13.0579V66.6767Z" fill="#D7AA02"/>
<path d="M15.6506 30.6792C15.2705 30.6792 14.9118 30.5059 14.6829 30.2104L11.8894 26.6018C11.4886 26.084 11.597 25.3495 12.1313 24.9612C12.6658 24.5729 13.4241 24.6779 13.8248 25.1956L15.5979 27.4862L19.4586 21.936C19.832 21.3993 20.5842 21.2574 21.1377 21.6192C21.6917 21.9809 21.8381 22.7092 21.4648 23.2459L16.6536 30.1624C16.4349 30.477 16.0724 30.6695 15.6811 30.679C15.6709 30.679 15.6608 30.6792 15.6506 30.6792Z" fill="#47A920"/>
<path d="M36.7577 13.1533H20.9274C20.2592 13.1533 19.7178 12.6286 19.7178 11.9814C19.7178 11.3343 20.2592 10.8096 20.9274 10.8096H36.7577C37.4259 10.8096 37.9673 11.3343 37.9673 11.9814C37.9673 12.6286 37.4259 13.1533 36.7577 13.1533Z" fill="#D7AA02"/>
<path d="M73.8268 63.0128H79.793L79.9543 62.8565C79.9838 62.7943 80.0006 62.7263 80.0006 62.6565V23.251C80.0006 22.9843 79.7774 22.7681 79.5022 22.7681H43.7806C43.5053 22.7681 43.2822 22.9843 43.2822 23.251V68.6673C43.2822 68.934 43.5054 69.1503 43.7806 69.1503H73.2979C73.3702 69.1503 73.4402 69.134 73.5044 69.1054L73.6656 68.9492V63.169C73.6655 63.0829 73.7379 63.0128 73.8268 63.0128Z" fill="#DFF6FD"/>
<path d="M48.8057 68.6673V23.251C48.8057 22.9843 49.029 22.7681 49.3043 22.7681H43.7798C43.5045 22.7681 43.2812 22.9843 43.2812 23.251V68.6673C43.2812 68.934 43.5045 69.1503 43.7798 69.1503H49.3043C49.029 69.1503 48.8057 68.934 48.8057 68.6673Z" fill="#C8EFFE"/>
<path d="M79.954 62.8564H73.8265C73.6483 62.8564 73.5039 62.9963 73.5039 63.1689V69.1053C73.5575 69.0816 73.6074 69.0499 73.6499 69.0088L79.8543 62.9979C79.8967 62.9568 79.9295 62.9083 79.954 62.8564Z" fill="#01D0FB"/>
<path d="M71.5265 50.0044H51.755C51.0868 50.0044 50.5454 49.4797 50.5454 48.8325C50.5454 48.1853 51.0868 47.6606 51.755 47.6606H71.5265C72.1947 47.6606 72.7361 48.1853 72.7361 48.8325C72.7361 49.4797 72.1945 50.0044 71.5265 50.0044Z" fill="#62DBFB"/>
<path d="M71.5265 54.3828H51.755C51.0868 54.3828 50.5454 53.8581 50.5454 53.2109C50.5454 52.5637 51.0868 52.0391 51.755 52.0391H71.5265C72.1947 52.0391 72.7361 52.5637 72.7361 53.2109C72.7361 53.8581 72.1945 54.3828 71.5265 54.3828Z" fill="#62DBFB"/>
<path d="M71.5265 58.7607H51.755C51.0868 58.7607 50.5454 58.2361 50.5454 57.5889C50.5454 56.9417 51.0868 56.417 51.755 56.417H71.5265C72.1947 56.417 72.7361 56.9417 72.7361 57.5889C72.7361 58.2361 72.1945 58.7607 71.5265 58.7607Z" fill="#62DBFB"/>
<path d="M67.0073 63.1392H51.755C51.0868 63.1392 50.5454 62.6145 50.5454 61.9673C50.5454 61.3201 51.0868 60.7954 51.755 60.7954H67.0073C67.6755 60.7954 68.2169 61.3201 68.2169 61.9673C68.2169 62.6145 67.6755 63.1392 67.0073 63.1392Z" fill="#62DBFB"/>
<path d="M61.2188 27.4015L51.6928 42.1062C51.4844 42.4277 51.7231 42.8457 52.115 42.8457H71.1672C71.5591 42.8457 71.7977 42.4277 71.5895 42.1062L62.0634 27.4015C61.8678 27.0999 61.4143 27.0999 61.2188 27.4015Z" fill="#FAC600"/>
<path d="M57.2437 42.1062L64.4165 31.0341L62.0631 27.4015C61.8678 27.0999 61.4141 27.0999 61.2188 27.4015L51.6928 42.1062C51.4844 42.4277 51.7231 42.8458 52.115 42.8458H57.6661C57.2741 42.8457 57.0354 42.4277 57.2437 42.1062Z" fill="#E8B800"/>
<path d="M61.6408 37.7105C60.9726 37.7105 60.4312 37.1858 60.4312 36.5386V33.1885C60.4312 32.5413 60.9726 32.0166 61.6408 32.0166C62.3089 32.0166 62.8504 32.5413 62.8504 33.1885V36.5386C62.8504 37.1858 62.3088 37.7105 61.6408 37.7105Z" fill="#BB5D4C"/>
<path d="M61.6408 40.6577C62.3088 40.6577 62.8504 40.133 62.8504 39.4858C62.8504 38.8386 62.3088 38.314 61.6408 38.314C60.9727 38.314 60.4312 38.8386 60.4312 39.4858C60.4312 40.133 60.9727 40.6577 61.6408 40.6577Z" fill="#BB5D4C"/>
</svg>
