<svg width="80" height="80" viewBox="0 0 80 80" fill="none" xmlns="http://www.w3.org/2000/svg">
<g clip-path="url(#clip0)">
<path d="M1.17969 17.4951C1.17969 17.4951 1.29234 58.0727 1.17969 62.4265C1.29234 66.5921 4.70219 69.9351 8.89501 69.9351H47.6109L73.3047 44.2413V17.4951H1.17969Z" fill="#E0E0E2"/>
<path d="M38.8486 78.6975H78.8259V38.7202L38.8486 78.6975ZM70.3374 70.3734H57.5052L70.3374 57.5412V70.3734Z" fill="#FFCA10"/>
<path d="M74.9116 42.6341V78.6975H78.8255V38.7202L74.9116 42.6341Z" fill="#FFA304"/>
<path d="M69.8847 5.65624L66.2356 2.00701C65.296 1.06732 63.7725 1.06732 62.833 2.00701L59.6758 5.16421L66.7275 12.2159L69.8846 9.0589C70.8242 8.11921 70.8242 6.59593 69.8847 5.65624Z" fill="#546F7A"/>
<path d="M69.8848 5.65598L67.5338 3.30566C68.4735 4.24535 68.4735 5.76879 67.5338 6.70833L64.377 9.86521L66.7276 12.2158L69.8846 9.0588C70.8243 8.11895 70.8243 6.59567 69.8848 5.65598Z" fill="#475D63"/>
<path d="M66.7264 12.2151L59.6748 5.16357L55.8598 8.97861L62.9113 16.0302L66.7264 12.2151Z" fill="#FF6137"/>
<path d="M66.7276 12.2149L64.3774 9.86475L60.5624 13.6798L62.9125 16.0299L66.7276 12.2149Z" fill="#E04F32"/>
<path d="M26.042 45.8498L36.93 42.0063L29.8854 34.9619L26.042 45.8498Z" fill="#FFC89F"/>
<path d="M34.5873 39.6636L27.3201 42.2287L26.042 45.8495L36.93 42.0061L34.5873 39.6636Z" fill="#F7B081"/>
<path d="M36.9406 42.0028L62.9106 16.0327L55.859 8.98104L29.8889 34.9511L36.9406 42.0028Z" fill="#FFD039"/>
<path d="M36.9411 42.0028L62.9111 16.0327L60.5632 13.6848L34.5932 39.6549L36.9411 42.0028Z" fill="#FFA304"/>
<path d="M9.23494 54.5778V4.70508C4.7829 4.70508 1.17383 8.31415 1.17383 12.7662V62.6389C1.17398 58.1869 4.78305 54.5778 9.23494 54.5778Z" fill="#919191"/>
<path d="M21.6582 45.8494H26.0418L29.8893 34.9503L47.3443 17.4951H42.9607L25.5057 34.9503L21.6582 45.8494Z" fill="#C6C5CA"/>
<path d="M69.3911 17.4951V48.1552L73.305 44.2413V17.4951H69.3911Z" fill="#C6C5CA"/>
<path d="M26.042 45.8495L31.1233 44.0559L27.8357 40.7686L26.042 45.8495Z" fill="#3C5156"/>
<path d="M70.7867 56.4567C70.348 56.2748 69.843 56.3753 69.5071 56.7111L56.6749 69.5433C56.3391 69.8792 56.2388 70.3842 56.4205 70.823C56.6021 71.2617 57.0305 71.5478 57.5053 71.5478H70.3375C70.9861 71.5478 71.5118 71.0222 71.5118 70.3736V57.5414C71.5116 57.0665 71.2255 56.6384 70.7867 56.4567ZM69.1633 69.1995H60.3399L69.1632 60.3762L69.1633 69.1995Z" fill="black"/>
<path d="M79.2753 37.6358C78.8366 37.454 78.3316 37.5544 77.9956 37.8902L74.4789 41.4069V17.4958C74.4789 16.8472 73.9531 16.3216 73.3047 16.3216H64.2826L67.5576 13.0466C67.5581 13.0461 67.5586 13.0455 67.559 13.045L70.7147 9.88937C71.3908 9.21328 71.7631 8.3139 71.7631 7.35765C71.7631 6.4014 71.3908 5.50233 70.7147 4.82593L67.0656 1.17686C66.3895 0.500762 65.4901 0.128418 64.5339 0.128418C63.5776 0.128418 62.6784 0.500762 62.0022 1.17686L58.845 4.33405L55.03 8.14906L46.8576 16.3214H10.4094V4.70499C10.4094 4.05639 9.88361 3.53077 9.23518 3.53077C4.14298 3.53108 0 7.67375 0 12.7663V62.6392C0 62.7259 0.01 62.8103 0.0278126 62.8915C0.19 65.0523 1.12485 67.06 2.68719 68.584C4.3572 70.2128 6.56173 71.1098 8.89486 71.1098H44.7759L38.0182 77.8675C37.6824 78.2034 37.582 78.7084 37.7637 79.1472C37.9454 79.5861 38.3737 79.872 38.8485 79.872H78.8259C79.4744 79.872 80.0002 79.3464 80.0002 78.6978V38.7207C80.0002 38.2458 79.7139 37.8176 79.2753 37.6358ZM59.6754 6.82515L65.0668 12.2164L62.9123 14.3709L57.5212 8.97968L59.6754 6.82515ZM63.6631 2.83764C64.1431 2.35733 64.9251 2.35733 65.4051 2.83764L69.0544 6.48687C69.5347 6.96702 69.5347 7.74875 69.0544 8.22906L66.7276 10.5559L61.3361 5.16452L63.6631 2.83764ZM41.6832 77.5237L48.4388 70.7681C48.4396 70.7673 48.4404 70.7667 48.4412 70.7661L51.4442 67.7629L53.5437 65.6634C54.0023 65.2046 54.0023 64.4613 53.5437 64.0028C53.491 63.9501 53.4345 63.9045 53.3753 63.8639C52.9181 63.5507 52.289 63.5968 51.8829 64.0028L47.1242 68.7615H8.89502C5.33392 68.7615 2.46688 65.9812 2.35407 62.4263C2.36079 62.2032 2.37813 61.982 2.40594 61.7632C2.4061 61.762 2.40625 61.7607 2.40641 61.7595C2.41954 61.6556 2.43532 61.5521 2.45329 61.4493C2.45532 61.4376 2.4575 61.4259 2.45954 61.4142C2.47594 61.3224 2.49438 61.2312 2.51454 61.1403C2.52016 61.1149 2.5261 61.0896 2.53204 61.0645C2.54985 60.9876 2.56907 60.9112 2.58969 60.8351C2.60094 60.794 2.61266 60.7531 2.62469 60.712C2.64188 60.6523 2.65969 60.5929 2.6786 60.5338C2.69751 60.4749 2.71751 60.4167 2.73813 60.3584C2.75235 60.3177 2.76641 60.2768 2.78172 60.2365C2.81032 60.1596 2.84063 60.0835 2.87188 60.0081C2.88079 59.9863 2.88954 59.9643 2.89876 59.9426C2.93891 59.8488 2.98063 59.7562 3.02469 59.6646C3.02657 59.6607 3.02829 59.6568 3.03016 59.6529C3.94845 57.7523 5.71501 56.3352 7.83486 55.8956C7.8408 55.8943 7.84673 55.8929 7.85267 55.8917C7.94986 55.8718 8.04799 55.8548 8.14674 55.839C8.16314 55.8363 8.17955 55.8331 8.19627 55.8306C8.28549 55.817 8.37564 55.8063 8.4658 55.7962C8.49111 55.7934 8.51627 55.7895 8.54174 55.787C8.62877 55.7782 8.71658 55.7724 8.80439 55.767C8.8322 55.7652 8.86002 55.7623 8.88783 55.7609C9.00283 55.7551 9.11877 55.7521 9.23518 55.7521C9.88361 55.7521 10.4094 55.2265 10.4094 54.5779V46.064C10.4094 45.4154 9.88361 44.8898 9.23518 44.8898C8.58674 44.8898 8.06095 45.4154 8.06095 46.064V53.4776C6.07814 53.7284 4.23766 54.6127 2.78641 56.0299C2.63376 56.179 2.48907 56.334 2.34829 56.4915V12.7663C2.34829 9.36922 4.8211 6.53843 8.06095 5.97937V17.4958V41.3672V41.3674C8.06095 42.0158 8.58674 42.5416 9.23518 42.5416C9.88361 42.5416 10.4094 42.0158 10.4094 41.3674V41.3672V18.67H44.5095L38.0182 25.1613C37.5596 25.62 37.5596 26.3633 38.0182 26.8219C38.4768 27.2803 39.2202 27.2803 39.6787 26.8219L48.1745 18.3261C48.1748 18.3258 48.1749 18.3255 48.1753 18.3253L55.8604 10.6402L61.2515 16.0316L60.619 16.6641C60.6186 16.6645 60.6179 16.665 60.6175 16.6655L36.9412 40.3421L31.5499 34.9508L36.2168 30.2839C36.6754 29.8252 36.6754 29.0819 36.2168 28.6233C35.7582 28.1649 35.0148 28.1649 34.5563 28.6233L29.059 34.1205C29.0296 34.1499 29.0021 34.181 28.9763 34.2129C28.9677 34.2235 28.9601 34.2349 28.9519 34.246C28.9354 34.268 28.9191 34.2902 28.904 34.3133C28.8954 34.3268 28.8876 34.3405 28.8794 34.3543C28.8665 34.3761 28.854 34.3983 28.8426 34.421C28.8351 34.4357 28.8283 34.4505 28.8215 34.4658C28.811 34.4888 28.8013 34.5122 28.7924 34.5357C28.7893 34.544 28.7852 34.5518 28.7822 34.56L26.4946 41.0405L24.9349 45.4591C24.9143 45.5179 24.8994 45.5776 24.8883 45.6377H20.9833C20.3349 45.6377 19.8091 46.1633 19.8091 46.8119C19.8091 47.4605 20.3349 47.9862 20.9833 47.9862H53.5012C54.1498 47.9862 54.6754 47.4605 54.6754 46.8119C54.6754 46.1633 54.1498 45.6377 53.5012 45.6377H30.1708L37.3318 43.1099C37.3377 43.1077 37.3434 43.1047 37.3493 43.1026C37.3771 43.0923 37.4044 43.0807 37.4315 43.0683C37.4423 43.0633 37.453 43.0587 37.4635 43.0535C37.4916 43.0394 37.5193 43.024 37.5465 43.0074C37.5552 43.0021 37.5643 42.9972 37.5729 42.9918C37.6012 42.9737 37.6287 42.9538 37.6557 42.9329C37.6624 42.9277 37.6695 42.9232 37.676 42.9179C37.7087 42.8916 37.7407 42.8633 37.771 42.833L61.9342 18.67H72.1303V43.7554L55.334 60.552C54.8754 61.0107 54.8754 61.754 55.334 62.2126C55.3626 62.2412 55.3925 62.2681 55.4232 62.2932C55.6385 62.4687 55.9015 62.5565 56.1643 62.5565C56.4271 62.5565 56.6903 62.4687 56.9054 62.2932C56.9362 62.2682 56.9661 62.2412 56.9946 62.2126L74.135 45.0723C74.1355 45.0718 74.1358 45.0713 74.1362 45.0708L77.6517 41.5554V51.9149H75.4853C74.8367 51.9149 74.3111 52.4405 74.3111 53.0891C74.3111 53.7377 74.8367 54.2634 75.4853 54.2634H77.6517V57.8018H75.4853C74.8367 57.8018 74.3111 58.3274 74.3111 58.976C74.3111 59.6246 74.8367 60.1503 75.4853 60.1503H77.6517V63.6885H75.4853C74.8367 63.6885 74.3111 64.2142 74.3111 64.8628C74.3111 65.5114 74.8367 66.037 75.4853 66.037H77.6517V69.5754H75.4853C74.8367 69.5754 74.3111 70.1012 74.3111 70.7496C74.3111 71.3982 74.8367 71.9239 75.4853 71.9239H77.6517V77.5242L41.6832 77.5237ZM31.4299 42.7027L29.189 40.4618L30.3763 37.0983L34.7934 41.5154L31.4299 42.7027Z" fill="black"/>
</g>
<defs>
<clipPath id="clip0">
<rect width="80" height="80" fill="white"/>
</clipPath>
</defs>
</svg>
